<svg width="50" height="54" viewBox="0 0 50 54" fill="none" xmlns="http://www.w3.org/2000/svg">
<path d="M15.3848 53.3335C14.6763 53.3322 13.981 53.1417 13.3643 52.7785L13.2948 52.736L10.508 51.0681L0.863337 45.2804C0.5865 45.1379 0.352959 44.9159 0.19158 44.6418C0.0511933 44.3485 -0.014408 44.0223 0.00264838 43.6948V28.5945C0.0564414 27.1322 0.827913 25.8028 2.04547 25.0791L3.89543 23.9677L7.42215 21.8571L7.58222 21.7598V21.9544L7.5691 40.3384C7.57173 40.4809 7.60715 40.6207 7.67537 40.7454C7.7213 40.8304 7.7869 40.903 7.86693 40.9537C7.94828 41.0045 8.04012 41.0305 8.13327 41.0291H8.13852C8.28415 41.0209 8.42454 40.9757 8.54787 40.8962L17.324 35.6307L17.4054 35.5827L17.4631 35.6595V35.6649L17.5248 35.7499L17.5877 35.8349L17.5956 35.8459L17.6586 35.9281L17.7216 36.0076L17.7373 36.0281L17.8042 36.1117L17.8685 36.1912L17.9394 36.2735L18.0089 36.3543L18.0207 36.368L18.0902 36.4461L18.1611 36.5243V36.5297C18.4799 36.8778 18.8223 37.2013 19.1871 37.4959C19.2579 37.5535 19.3301 37.607 19.3996 37.6645L19.439 37.6947C19.498 37.7385 19.5571 37.7838 19.6161 37.8262L19.7027 37.8879L19.788 37.9468L19.7998 37.9551L19.8759 38.0071L19.9546 38.0579L19.9887 38.0812L20.0648 38.1305L20.1409 38.1785L20.1659 38.1949L20.2787 38.2621L20.301 38.2758L20.3246 38.2895L20.3495 38.3045L20.4309 38.3539L20.5162 38.4005L20.528 38.4073L20.6146 38.4553L20.7025 38.5019L20.713 38.5074C20.9793 38.6485 21.2548 38.776 21.5304 38.8884C21.5907 38.9131 21.6445 38.935 21.6931 38.9528C21.7416 38.9706 21.777 38.9857 21.8256 39.0035L21.8571 39.0145H21.8702L21.9633 39.0474L22.0565 39.0803H22.0709L22.1549 39.1077L22.2402 39.1337L22.2822 39.1488L22.3648 39.1748L22.4488 39.1995L22.4803 39.2077L22.5616 39.231L22.6456 39.2543L22.6954 39.268L22.7689 39.2872L22.8411 39.3064L22.9146 39.3228L22.9815 39.3379L23.0471 39.353L23.135 39.3708L23.1993 39.3845L23.2622 39.3982L23.3318 39.4119L23.4066 39.427L23.48 39.4407L23.5365 39.4489L23.6152 39.4626L23.6926 39.475L23.7385 39.4804C23.9196 39.5065 24.1046 39.5257 24.2909 39.5407L24.3971 39.549L24.5034 39.5558H24.5349H24.6031H24.67H24.7632H24.8695H25.2027H25.2631H25.3247H25.4245H25.5373L25.6436 39.5476L25.7603 39.5394L25.8666 39.5312L25.9781 39.5202L26.0621 39.5106H26.0831L26.2038 39.4955L26.3101 39.4804L26.4164 39.4654L26.5357 39.4448H26.5515L26.6368 39.4297C26.6984 39.4201 26.7549 39.4092 26.8139 39.3955L26.8546 39.3873L26.953 39.3667L27.0592 39.3434L27.1655 39.3187L27.2364 39.3009L27.3059 39.2845L27.3794 39.2639L27.4122 39.2557L27.5185 39.2255L27.6129 39.1995L27.7402 39.1611L27.8281 39.1337L27.8832 39.1145L27.9514 39.0926L28.0498 39.0583L28.1705 39.0145L28.2637 38.9788L28.3818 38.9336L28.4802 38.8939L28.5996 38.8445L28.6927 38.8034L28.8069 38.7527L28.9066 38.7061L29.0194 38.6513L29.1165 38.6033L29.2083 38.5567L29.2241 38.5485L29.2359 38.543L29.2503 38.5348L29.3225 38.4978L29.4419 38.4334L29.4616 38.4224L29.5324 38.384L29.6387 38.3251L29.745 38.2648L29.8512 38.2004L29.9575 38.1346L30.0638 38.0688L30.1701 38.0003H30.1753L30.2711 37.9345L30.3708 37.8632L30.4705 37.792L30.5637 37.7235C30.7119 37.6124 30.8326 37.5151 30.9455 37.4206L31.0373 37.3452L31.1265 37.2684L31.2144 37.1903L31.301 37.1108C31.3811 37.0382 31.4611 36.9614 31.5477 36.8751L31.5949 36.8285L31.6421 36.7792L31.7248 36.6942L31.8062 36.6092L31.8442 36.5681L31.9203 36.4845L31.9426 36.4598L31.9649 36.4352L32.0463 36.342L32.121 36.2556L32.1971 36.1638L32.2693 36.0747L32.3401 35.9884L32.4097 35.8979L32.4202 35.8842L32.4858 35.7965L32.5527 35.7061L32.6104 35.6252L32.6931 35.6745L39.1535 39.549L39.3136 39.6463L39.1535 39.7436L19.275 51.6547L17.425 52.7662C16.8045 53.1376 16.0999 53.3335 15.3848 53.3335Z" fill="#BA0B22"/>
<path d="M34.6085 53.3334C33.8934 53.332 33.1902 53.136 32.5696 52.7633L30.7196 51.6518L27.1929 49.5412L27.0315 49.4439L27.1929 49.348L42.5226 40.1628C42.6407 40.0915 42.7404 39.9901 42.8113 39.8681C42.8598 39.7845 42.8861 39.6886 42.89 39.5913C42.8913 39.4913 42.8664 39.394 42.8165 39.309C42.7365 39.1815 42.6276 39.076 42.4977 39.0061L33.7216 33.7351L33.6402 33.6858L33.677 33.5953V33.5885L33.7176 33.4912L33.7557 33.3925V33.3788L33.7924 33.2815L33.8278 33.1856L33.837 33.1595L33.8724 33.0581L33.9066 32.9594L33.942 32.8484L33.9748 32.7456L33.98 32.7292L34.0115 32.6278L34.0404 32.525V32.5181C34.1755 32.0576 34.2792 31.5862 34.3487 31.1092C34.3618 31.0119 34.3723 30.9201 34.3815 30.8324C34.3907 30.7447 34.3999 30.6474 34.4064 30.5569L34.4143 30.4459L34.4196 30.3349V30.3322V30.2376V30.1417V30.0978V30.0032V29.9114V29.8785C34.4196 29.8388 34.4196 29.7935 34.4196 29.7428V29.6579V29.5606V29.4605V29.4413V29.3385V29.2358V29.2234C34.4038 28.9151 34.3736 28.6026 34.329 28.2983C34.3212 28.2312 34.3107 28.1722 34.3028 28.1188C34.2949 28.0653 34.2831 28.0078 34.2713 27.942V27.9269L34.2516 27.8269L34.2319 27.7268V27.7117L34.2123 27.6213L34.1926 27.5308L34.1821 27.487L34.1624 27.4006L34.1414 27.3116L34.1335 27.2787L34.1112 27.1937L34.0889 27.106L34.0745 27.0553L34.0535 26.9785L34.0312 26.9045L34.0102 26.8305L33.9892 26.7634L33.9682 26.6962L33.9407 26.6085L33.9197 26.5427L33.8987 26.4797L33.8751 26.4125L33.8501 26.3385L33.8318 26.2672L33.8121 26.2124L33.7832 26.1357L33.7544 26.0603L33.736 26.0164C33.6625 25.8314 33.589 25.6587 33.5103 25.4888L33.4618 25.386L33.4145 25.2846L33.4001 25.2544L33.3686 25.1928L33.3371 25.1311L33.2925 25.0461L33.244 24.9529L33.2361 24.9378L33.1889 24.8515C33.1653 24.8076 33.1482 24.7775 33.1325 24.7501V24.7419L33.0826 24.6541L33.0511 24.6007L33.0183 24.5459L32.9645 24.4582L32.9042 24.3595L32.8425 24.2649L32.7769 24.1649L32.7192 24.0785L32.6523 23.9826L32.6024 23.9127L32.5893 23.8949L32.5158 23.7921L32.4528 23.7071L32.3859 23.6194L32.3098 23.5221L32.2993 23.5084L32.239 23.4344L32.1209 23.2905L32.0933 23.2576L32.0277 23.1795L31.9582 23.1L31.8873 23.0205L31.8375 22.9657L31.7889 22.9109L31.7352 22.8547L31.7102 22.83L31.6341 22.7505L31.5633 22.6792L31.4675 22.5819L31.3993 22.5175C31.373 22.4915 31.3455 22.4654 31.3035 22.4271L31.2274 22.3544L31.129 22.2695L31.0529 22.2023L30.9558 22.1187L30.8732 22.0502L30.7734 21.9693L30.6921 21.9035L30.5924 21.8268L30.5032 21.7596L30.3969 21.6856L30.3103 21.6239L30.2263 21.5664L30.2119 21.5568L30.2001 21.5486L30.1857 21.539L30.1174 21.4938L30.0059 21.4197L29.9862 21.4074L29.9206 21.3636L29.8209 21.3005L29.7212 21.2388L29.6149 21.1772L29.5086 21.11L29.4024 21.0511L29.2961 20.9935H29.2908L29.1846 20.9387L29.0783 20.8839L28.972 20.8304L28.8658 20.7811C28.7175 20.7112 28.5705 20.6481 28.4223 20.5878L28.316 20.544L28.2097 20.5029H28.2045L28.0982 20.4618L27.9919 20.4234C27.8857 20.385 27.7794 20.3494 27.6731 20.3192L27.6101 20.3014L27.5472 20.2836L27.4291 20.2493L27.3176 20.2192L27.2769 20.2096L27.1864 20.1863L27.1549 20.1781L27.1234 20.1712L27.0919 20.1644L26.9738 20.1383L26.8675 20.1136L26.7534 20.0904L26.6419 20.0698L26.529 20.0492L26.4228 20.0328H26.407L26.3007 20.0177L26.1945 20.0026H26.1879L26.0908 19.9917V11.9399L26.2522 12.0372L46.1123 23.9661L47.9636 25.0776C49.214 25.83 49.9907 27.2156 50.0064 28.7232V43.7234C50.0261 44.0441 49.9579 44.3648 49.8109 44.6485C49.6364 44.9212 49.3976 45.1432 49.1169 45.2912L36.5319 52.8469C35.9297 53.1662 35.2737 53.3334 34.6085 53.3334Z" fill="#BA0B22"/>
<path d="M9.61475 37.7178V11.4437C9.61737 9.93482 10.3836 8.54101 11.63 7.77764L11.7035 7.74474L14.4889 6.0782L24.1323 0.285066C24.3855 0.111011 24.6807 0.0123346 24.9838 0H24.9996C25.3144 0.0205576 25.6175 0.126087 25.8825 0.304253L38.4675 7.85987C39.6588 8.63009 40.3831 9.99101 40.3817 11.4547V18.0989L40.2217 18.003L24.892 8.79181C24.7726 8.72192 24.6387 8.68354 24.5023 8.6808C24.4078 8.67943 24.3147 8.70273 24.2307 8.74796C24.1467 8.79592 24.0785 8.86856 24.0326 8.95627C23.967 9.09058 23.9342 9.23997 23.9394 9.39072V20.019L23.8463 20.0327H23.8384L23.7321 20.0478L23.6259 20.0629H23.6114L23.5117 20.0779L23.4133 20.093H23.3871L23.2808 20.1108L23.1811 20.13H23.1758L23.0696 20.1506L22.9633 20.1739H22.9462L22.8478 20.1972L22.7468 20.2232H22.7389C22.2889 20.337 21.8481 20.485 21.4204 20.6673L21.1737 20.7783C21.1028 20.8112 21.0241 20.8482 20.931 20.8893L20.8365 20.9359L20.7447 20.9825L20.7302 20.988L20.6489 21.0318L20.5675 21.077L20.557 21.1113L20.477 21.1552L20.3983 21.199L20.372 21.2141L20.2592 21.2813L20.2356 21.295L20.2107 21.3032L20.1857 21.3183L20.1044 21.3676L20.023 21.421L20.0112 21.4279L19.9286 21.4827L19.8459 21.5389L19.8367 21.5458C19.5914 21.7116 19.346 21.8939 19.1099 22.0885L19.0587 22.1323L19.0312 22.1556L18.9734 22.2036C18.9327 22.2379 18.8881 22.2776 18.8409 22.3201L18.8278 22.3311L18.753 22.3982L18.6808 22.4654L18.669 22.475L18.6047 22.5366L18.5391 22.5997L18.5063 22.6326L18.4434 22.6942L18.3804 22.7573L18.3568 22.782L18.2951 22.8436L18.2348 22.908L18.198 22.9464L18.1455 23.0026L18.0931 23.0588L18.0406 23.115L17.996 23.1671L17.95 23.2192L17.891 23.289L17.8477 23.3398L17.8057 23.3905L17.7637 23.4371L17.7152 23.4974L17.668 23.5577L17.6325 23.6029L17.5827 23.6687L17.5341 23.7317L17.5053 23.7701C17.3819 23.9373 17.2744 24.0908 17.1786 24.2374L17.1169 24.332L17.0566 24.4252L17.0395 24.454L17.0028 24.5129L16.966 24.5718L16.9175 24.6541L16.8637 24.7459L16.8558 24.761L16.8073 24.8459L16.7889 24.8788L16.7718 24.9104L16.7509 24.9487V24.957L16.7036 25.046L16.6748 25.1022L16.6446 25.1571L16.5987 25.2502L16.5462 25.3544L16.4976 25.4572L16.4451 25.5682L16.4019 25.6655L16.3546 25.7765L16.3218 25.856L16.2641 25.9944L16.2247 26.0945L16.1841 26.1986C16.1762 26.2233 16.1683 26.2425 16.1604 26.2603C16.1526 26.2768 16.146 26.3001 16.1394 26.3165V26.3316L16.108 26.4165C16.0909 26.4645 16.0765 26.507 16.062 26.5509L16.0476 26.5947L16.0332 26.6345L16.0017 26.7331L15.9702 26.8359L15.9387 26.9387L15.9177 27.0127L15.898 27.084L15.8784 27.158L15.8692 27.1936L15.8416 27.3046L15.818 27.4033L15.7865 27.5376L15.7668 27.6322C15.759 27.6665 15.7511 27.7048 15.7393 27.7638L15.7183 27.8679L15.6947 27.9995L15.6776 28.1023L15.6566 28.2311L15.6409 28.3421L15.6238 28.4723L15.6094 28.5833L15.595 28.7108L15.5831 28.8218L15.5727 28.952L15.5648 29.063L15.5569 29.1863V29.2014V29.2192V29.3042V29.4426V29.4659V29.5482V29.6688V29.9168V30.0429V30.169L15.5622 30.2951V30.3006L15.5687 30.4198L15.5766 30.5459L15.5871 30.672L15.5976 30.7898C15.6146 30.9666 15.6356 31.1338 15.6592 31.286L15.6763 31.4066L15.6973 31.5244V31.5299L15.717 31.6505L15.7406 31.7698C15.7629 31.8808 15.7865 31.9918 15.8128 32.1096L15.8285 32.1754L15.8442 32.2412L15.8757 32.3646L15.9072 32.4756L15.9321 32.5592L15.9558 32.6414L15.9636 32.6743L15.9571 32.699L15.9938 32.8196L16.0292 32.9306L16.0673 33.0416L16.104 33.1526L16.1421 33.2636L16.1814 33.3746L16.188 33.3897L16.2274 33.4939L16.2706 33.598V33.6035L16.31 33.6953L16.226 33.746L9.7735 37.6232L9.61475 37.7178Z" fill="#BA0B22"/>
<path d="M17.5522 29.6839C17.5522 33.9791 20.8861 37.4615 24.998 37.4615C29.1099 37.4615 32.4437 33.9791 32.4437 29.6839C32.4437 25.3887 29.1099 21.9062 24.998 21.9062C20.8861 21.9062 17.5522 25.3887 17.5522 29.6839Z" fill="#FFC730"/>
</svg>
