<svg width="50" height="50" viewBox="0 0 50 50" fill="none" xmlns="http://www.w3.org/2000/svg">
<path d="M17.4647 8.52941C19.7452 5.39216 22.3869 2.53081 25.3349 0C27.288 2.22969 28.6258 4.92157 29.2199 7.81653C31.537 6.52801 33.977 5.46779 36.503 4.65266C38.2204 4.07983 39.9928 3.58543 41.7779 3.15126C41.6213 7.26471 40.7026 11.3151 39.0685 15.098C43.1962 15.2899 47.2477 16.2717 51 17.9888C48.1819 21.7325 44.8529 25.0686 41.1076 27.9006C43.5758 30.0602 45.4654 32.7927 46.6084 35.8543C42.8914 37.5028 38.9753 38.6681 34.9563 39.3207C35.3232 41.8894 35.0551 44.507 34.1759 46.9496C32.9002 46.8445 31.633 46.6989 30.418 46.5028C28.661 46.2423 26.9352 45.8039 25.2686 45.1947C24.333 47.0602 22.998 48.7003 21.3568 50.0014C19.391 48.8515 17.6059 47.4216 16.0564 45.7591C14.617 46.7157 12.9955 47.3697 11.2908 47.6807C10.2677 46.1345 9.48312 44.444 8.96381 42.6681C8.01691 42.7745 7.05872 42.7451 6.11887 42.5812C5.54875 42.4874 4.98569 42.3627 4.42969 42.2059C4.17003 40.5574 4.16439 38.8781 4.41134 37.2269C3.00863 36.633 1.72728 35.7899 0.629386 34.7381C1.02452 33.1541 1.67507 31.6443 2.55564 30.2675C1.47468 28.9188 0.612452 27.4132 0 25.8025C1.02452 24.444 2.29034 23.2829 3.73821 22.3795L3.72692 22.3347C3.26688 20.2171 3.08766 18.0476 3.19632 15.8838C3.83417 15.5742 4.49037 15.3067 5.16209 15.0798C6.25434 14.6975 7.40445 14.5 8.56162 14.4958C9.17407 11.6218 10.128 8.83053 11.4009 6.17927C13.6009 6.38936 15.698 7.20308 17.4577 8.53081L17.4647 8.52941Z" fill="#7DCDF1"/>
<path d="M20.9378 14.944C22.3391 13.2998 23.8759 11.7732 25.5312 10.3796C26.677 9.41182 27.9104 8.55328 29.2186 7.81519C29.4444 9.03647 29.4909 10.283 29.3583 11.5169C29.1367 13.5575 28.695 15.5701 28.0402 17.5169C30.1429 16.6471 32.3232 15.9734 34.5528 15.5043C36.0374 15.1975 37.553 15.0617 39.07 15.1009C38.4251 16.5183 37.6264 17.8614 36.6894 19.1079C35.2782 20.9804 33.7005 22.7227 31.9746 24.3138C33.9841 24.6261 35.9499 25.1709 37.8324 25.9384C39.0178 26.4258 40.1228 27.0897 41.1078 27.9048C39.8462 28.8166 38.4985 29.6037 37.0831 30.2578C35.0834 31.1723 33.0076 31.9118 30.8767 32.4636C32.072 33.6443 33.0979 34.9818 33.9277 36.4398C34.4301 37.3348 34.7772 38.3082 34.9536 39.318C33.6864 39.4931 32.405 39.5393 31.1279 39.4566C29.3371 39.3348 27.5619 39.0421 25.8275 38.5841C26.0632 39.9692 26.1041 41.3796 25.9531 42.776C25.8543 43.6135 25.6215 44.4286 25.263 45.1933C24.3486 44.8516 23.4737 44.4118 22.6552 43.881C21.4599 43.0995 20.3521 42.1933 19.3488 41.1807L19.3417 41.1737L19.3488 41.1807C18.8958 42.2942 18.2989 43.3432 17.5707 44.3026C17.1417 44.8614 16.6295 45.353 16.0509 45.7578C15.533 45.1751 15.0856 44.5337 14.7187 43.8474C14.1571 42.7914 13.7111 41.6765 13.3908 40.5253C12.578 41.1905 11.6805 41.7466 10.7223 42.1793C10.162 42.4286 9.56792 42.5925 8.9597 42.6653C8.78612 42.0141 8.69017 41.3432 8.67464 40.6695C8.65489 39.5911 8.75226 38.5127 8.96534 37.4538C8.01844 37.6359 7.05038 37.6919 6.08936 37.6205C5.51219 37.5729 4.94631 37.4412 4.40865 37.2283C4.51731 36.6065 4.69935 36.0001 4.95195 35.4202C5.37248 34.4804 5.90026 33.5925 6.52401 32.7718C5.60251 32.4566 4.72758 32.0239 3.91756 31.4861C3.41095 31.1415 2.95513 30.7311 2.55859 30.2648C2.90857 29.7452 3.32486 29.2718 3.79902 28.8586C4.57799 28.1919 5.44022 27.6247 6.36313 27.1709C5.64202 26.3306 5.0211 25.4104 4.51166 24.4286C4.1758 23.7732 3.91756 23.0827 3.74257 22.3684C4.30704 22.0407 4.91808 21.8026 5.55594 21.6597C6.60585 21.4342 7.68399 21.3628 8.75367 21.4482C8.47002 20.0925 8.31902 18.7129 8.30491 17.3292C8.29645 16.3768 8.38394 15.4244 8.56598 14.4889C9.29415 14.4959 10.0153 14.6359 10.6912 14.9048C11.8272 15.367 12.8814 16.0043 13.8156 16.7956C14.2728 15.0729 14.8739 13.3922 15.6134 11.769C16.1341 10.6359 16.7551 9.55048 17.4677 8.52667C18.1747 9.0981 18.7674 9.79418 19.2176 10.5813C19.9881 11.951 20.5681 13.4188 20.9378 14.944Z" fill="#00AAE7"/>
<path d="M16.9921 21.0363C16.9667 21.0909 17.0161 21.0923 16.9921 21.0363C18.0124 18.8332 19.3403 16.7814 20.935 14.9438C21.4571 17.0825 21.5728 19.301 21.2722 21.4817C21.2341 21.5097 21.2271 21.5629 21.2553 21.5993L21.2722 21.4817C23.3184 19.8374 25.5975 18.4999 28.0346 17.5139C27.2246 19.9761 26.0335 22.2982 24.5024 24.3962C24.9328 24.3122 25.3717 24.2422 25.8247 24.1847C27.8681 23.9467 29.9355 23.9901 31.9675 24.315C30.0201 26.1441 27.8102 27.6763 25.4112 28.864C27.4602 29.6833 29.3188 30.9088 30.8753 32.4635C28.9476 32.9733 26.9649 33.245 24.9695 33.2744C24.5447 33.2744 24.1369 33.2618 23.7418 33.2338C24.8101 34.85 25.5213 36.6735 25.8289 38.5825C23.8617 38.0797 21.999 37.2422 20.3211 36.1063C20.3437 37.8458 20.0135 39.5727 19.3474 41.1833C18.1098 39.9551 17.1064 38.5139 16.3867 36.9298C16.4065 36.8948 16.3613 36.8724 16.3867 36.9298C15.636 38.3108 14.6185 39.5321 13.395 40.5251C12.9632 38.9999 12.8066 37.4116 12.9322 35.8318C11.7355 36.6329 10.3878 37.1848 8.96957 37.4523C9.25886 35.9761 9.81063 34.5643 10.5981 33.28C10.6432 33.28 10.6305 33.2268 10.5981 33.28C10.3285 33.3038 10.059 33.3164 9.78805 33.3164C8.67745 33.3164 7.57532 33.1315 6.52682 32.7716C7.40316 31.5951 8.49541 30.5937 9.74572 29.8192C8.44743 29.1763 7.2945 28.2772 6.35889 27.1749C7.41868 26.6511 8.56033 26.3066 9.73443 26.1553C10.0167 26.1189 10.3003 26.0993 10.584 26.0909C10.615 26.1399 10.6432 26.0909 10.584 26.0909C9.69774 24.6665 9.07682 23.0951 8.75366 21.4509C10.2975 21.5699 11.7905 22.0503 13.1114 22.8514C13.1114 22.9046 13.1579 22.8808 13.1114 22.8514C13.0309 20.8094 13.2666 18.7674 13.8099 16.7954C15.1773 17.9495 16.264 19.3962 16.9893 21.0265L16.9921 21.0363Z" fill="#006FBA"/>
<path d="M21.2764 21.4581V21.4819C19.9484 22.5464 18.8068 23.8209 17.8966 25.2536C17.8952 23.7999 17.5875 22.3629 16.992 21.0352C16.3344 22.4483 15.928 23.9623 15.7897 25.5127C15.1236 24.4287 14.2063 23.5169 13.1127 22.8559C13.1621 24.2074 13.4796 25.538 14.0483 26.7676C12.9631 26.2732 11.7749 26.0436 10.581 26.0968C10.5669 26.0758 10.5401 26.0772 10.502 26.0968H10.581C11.2132 27.115 12.067 27.9791 13.0802 28.6276C11.8948 28.7845 10.7574 29.192 9.74561 29.8237C10.7744 30.3307 11.9061 30.5982 13.0548 30.6024C12.067 31.3265 11.2316 32.2368 10.5965 33.2802C11.7721 33.1794 12.9109 32.8307 13.9396 32.2564C13.3766 33.3727 13.0351 34.587 12.9349 35.8321C13.9749 35.1416 14.864 34.2508 15.5512 33.213C15.5766 34.4945 15.8617 35.7592 16.3908 36.9287C17.0231 35.7774 17.4154 34.5113 17.541 33.2046C18.2564 34.3531 19.2061 35.3405 20.3266 36.1052C20.3167 34.7368 20.0063 33.3867 19.4164 32.1486C20.7711 32.7929 22.2416 33.1626 23.7431 33.234C22.9486 32.0239 21.8916 31.0071 20.6484 30.2564C22.3079 30.0786 23.9223 29.6066 25.4139 28.8629C23.9463 28.2732 22.3728 27.9903 20.7909 28.031C22.2289 27.0366 23.4863 25.8069 24.5094 24.3951C22.8315 24.7018 21.2227 25.3027 19.7593 26.1696C20.5439 24.7102 21.0576 23.122 21.2735 21.4819C21.2792 21.4791 21.2806 21.4721 21.2764 21.4581Z" fill="white"/>
</svg>
