<svg width="125" height="37" viewBox="0 0 125 37" fill="none" xmlns="http://www.w3.org/2000/svg">
<path fill-rule="evenodd" clip-rule="evenodd" d="M22.0245 10.3844H28.334V12.991C29.512 10.9724 31.7126 9.61441 34.2329 9.61441C37.9948 9.61441 41.0443 12.6395 41.0443 16.371V24.9505C41.0443 27.0415 39.3196 28.7525 37.2114 28.7525H34.7347V18.1394C34.7347 16.3861 33.3018 14.9647 31.5343 14.9647C29.7667 14.9647 28.3338 16.3861 28.3338 18.1394V24.9507C28.3338 27.0417 26.6092 28.7527 24.501 28.7527H22.0243L22.0245 10.3844ZM3.67447 15.2086C2.90432 14.4862 2.32709 13.6641 1.99833 12.7489C-0.102635 6.89995 5.19393 -1.00005 15.1276 1.391C16.6229 1.75095 18.1679 2.33803 19.6902 3.17352C17.2814 7.74839 16.108 7.44857 13.9694 7.22819C12.9878 7.12709 11.9297 6.75033 10.7612 7.17252C8.37218 8.03584 7.85673 11.013 12.5248 11.9509C15.4813 12.6766 19.137 14.6318 20.2275 17.6681C22.3285 23.5171 17.0319 31.4171 7.09827 29.026C4.88193 28.4925 2.80863 27.5083 0.90332 26.2847L3.55501 20.9486C5.4839 22.6074 8.86833 24.2586 11.4649 23.3205C13.8535 22.4575 14.3693 19.0999 9.70104 18.1618C6.9525 17.4872 4.97956 16.6263 3.67447 15.2086ZM117.793 1.90965H124.103L120.455 15.6898C120.012 17.3627 118.27 18.7313 116.583 18.7313H113.34L117.793 1.90965ZM115.651 29.4644C113.297 29.4644 111.389 27.5716 111.389 25.2366C111.389 22.9016 113.297 21.0087 115.651 21.0087C118.005 21.0087 119.913 22.9016 119.913 25.2366C119.913 27.5716 118.005 29.4644 115.651 29.4644ZM88.7188 10.3842H95.0283V12.2597C96.6419 10.6181 98.8017 9.61422 101.176 9.61422C106.171 9.61422 110.22 14.0578 110.22 19.5393C110.22 25.0208 106.171 29.4644 101.176 29.4644C98.8017 29.4644 96.6419 28.4604 95.0283 26.819V32.6979C95.0283 34.789 93.3037 36.5 91.1955 36.5H88.7188V10.3842ZM99.3059 23.7363C96.9434 23.7363 95.0283 21.8571 95.0283 19.5393C95.0283 17.2214 96.9434 15.3424 99.3059 15.3424C101.668 15.3424 103.583 17.2215 103.583 19.5393C103.583 21.8573 101.668 23.7363 99.3059 23.7363ZM66.0624 10.3842H72.3719V12.2597C73.9855 10.6181 76.1453 9.61422 78.5191 9.61422C83.5144 9.61422 87.564 14.0578 87.564 19.5393C87.564 25.0208 83.5144 29.4644 78.5191 29.4644C76.1453 29.4644 73.9855 28.4604 72.3719 26.819V32.6979C72.3719 34.789 70.6473 36.5 68.5391 36.5H66.0624V10.3842ZM76.6495 23.7363C74.287 23.7363 72.3719 21.8571 72.3719 19.5393C72.3719 17.2214 74.287 15.3424 76.6495 15.3424C79.012 15.3424 80.927 17.2215 80.927 19.5393C80.927 21.8573 79.012 23.7363 76.6495 23.7363ZM57.566 10.3842H63.8755V24.9503C63.8755 27.0413 62.1508 28.7523 60.0426 28.7523H57.566V26.819C55.9524 28.4606 53.7925 29.4644 51.4188 29.4644C46.4233 29.4644 42.3739 25.0208 42.3739 19.5393C42.3739 14.0578 46.4235 9.61422 51.4188 9.61422C53.7925 9.61422 55.9524 10.6183 57.566 12.2597V10.3842ZM53.2884 23.7363C55.6509 23.7363 57.566 21.8571 57.566 19.5393C57.566 17.2214 55.6509 15.3424 53.2884 15.3424C50.9259 15.3424 49.0109 17.2215 49.0109 19.5393C49.0109 21.8573 50.9259 23.7363 53.2884 23.7363Z" fill="#06DF6F"/>
</svg>
