<svg width="30" height="33" viewBox="0 0 30 33" fill="none" xmlns="http://www.w3.org/2000/svg">
<path d="M4.93942 2.90027C4.73544 2.78361 4.505 2.72332 4.27101 2.72539C4.03702 2.72746 3.80764 2.79182 3.60568 2.91207C3.40373 3.03232 3.23623 3.20427 3.11986 3.41081C3.00348 3.61736 2.94229 3.8513 2.94235 4.08937V28.6352C2.94229 28.8732 3.00348 29.1072 3.11986 29.3137C3.23623 29.5203 3.40373 29.6922 3.60568 29.8125C3.80764 29.9327 4.03702 29.9971 4.27101 29.9991C4.505 30.0012 4.73544 29.9409 4.93942 29.8243L26.3845 17.5514C26.592 17.4328 26.7648 17.2602 26.8851 17.0512C27.0053 16.8422 27.0687 16.6044 27.0687 16.3623C27.0687 16.1201 27.0053 15.8823 26.8851 15.6733C26.7648 15.4643 26.592 15.2917 26.3845 15.1732L4.93942 2.90027ZM0.261719 4.08937C0.261992 3.37539 0.445926 2.6739 0.795238 2.05465C1.14455 1.4354 1.64707 0.919939 2.25286 0.559513C2.85865 0.199086 3.54661 0.00624244 4.24835 0.000149023C4.9501 -0.00594439 5.64119 0.174925 6.25294 0.524779L27.698 12.7977C28.32 13.1535 28.8378 13.6713 29.1981 14.298C29.5584 14.9247 29.7483 15.6376 29.7483 16.3636C29.7483 17.0897 29.5584 17.8026 29.1981 18.4293C28.8378 19.0559 28.32 19.5738 27.698 19.9296L6.25294 32.2025C5.64099 32.5525 4.94965 32.7333 4.24768 32.7271C3.54571 32.7209 2.85757 32.5278 2.25171 32.1671C1.64584 31.8063 1.14336 31.2905 0.794238 30.6708C0.445117 30.0512 0.261524 29.3494 0.261719 28.6352V4.08937Z" fill="#002433"/>
</svg>
