<svg width="10" height="18" viewBox="0 0 10 18" fill="none" xmlns="http://www.w3.org/2000/svg">
<path d="M0.439312 0.260846C0.356163 0.343784 0.290194 0.442312 0.245182 0.550786C0.20017 0.659259 0.177002 0.775547 0.177002 0.892989C0.177002 1.01043 0.20017 1.12672 0.245182 1.23519C0.290194 1.34367 0.356163 1.44219 0.439312 1.52513L7.84467 8.92871L0.439312 16.3323C0.271657 16.4999 0.177469 16.7273 0.177469 16.9644C0.177469 17.2015 0.271657 17.4289 0.439312 17.5966C0.606966 17.7642 0.834355 17.8584 1.07145 17.8584C1.30855 17.8584 1.53594 17.7642 1.7036 17.5966L9.73931 9.56085C9.82246 9.47791 9.88843 9.37938 9.93344 9.27091C9.97845 9.16244 10.0016 9.04615 10.0016 8.92871C10.0016 8.81127 9.97845 8.69498 9.93344 8.5865C9.88843 8.47803 9.82246 8.3795 9.73931 8.29656L1.7036 0.260846C1.62066 0.177697 1.52213 0.111728 1.41366 0.0667161C1.30518 0.0217046 1.1889 -0.00146484 1.07145 -0.00146484C0.954013 -0.00146484 0.837725 0.0217046 0.729252 0.0667161C0.620778 0.111728 0.52225 0.177697 0.439312 0.260846Z" fill="#E6FFF3"/>
</svg>
