<svg width="50" height="50" viewBox="0 0 50 50" fill="none" xmlns="http://www.w3.org/2000/svg">
<g clip-path="url(#clip0_1_1131)">
<path d="M20.9377 50C19.0057 48.8543 17.2538 47.4244 15.7404 45.7577C15.8707 45.6597 15.9732 45.5812 16.1021 45.4762C16.3557 45.2717 16.5927 45.0476 16.8117 44.8067C16.9171 44.6961 17.0155 44.5812 17.1069 44.4608C17.1624 44.388 17.2386 44.2885 17.3148 44.1765L17.3204 44.1695C17.4243 44.0238 17.5283 43.8712 17.6724 43.6583C17.9856 43.1709 18.2725 42.6667 18.5303 42.1471C18.6495 41.9062 18.7645 41.6499 18.874 41.3852L18.9004 41.3221L18.9073 41.3025L18.9239 41.2619L18.9364 41.2297C18.9433 41.2129 18.9572 41.1779 18.9572 41.1779C19.2247 41.4524 19.3924 41.6204 19.5823 41.7941C20.1283 42.3081 20.7021 42.7899 21.3022 43.2381C21.5101 43.3936 21.7347 43.5532 21.9772 43.7255L22.0562 43.7787L22.077 43.7941L22.1006 43.8095L22.1089 43.8151C22.1782 43.8627 22.2641 43.9202 22.3528 43.979C22.5177 44.084 22.6937 44.1891 22.8739 44.2941C23.2648 44.5182 23.6681 44.7213 24.0797 44.902C24.2044 44.9608 24.3389 45.0182 24.5939 45.1204L24.6978 45.1611L24.7727 45.1905C23.8607 47.0602 22.551 48.7031 20.9377 50ZM11.0711 47.6849C10.0649 46.1387 9.29565 44.4482 8.78839 42.6709C8.89926 42.6555 9.00875 42.6387 9.18061 42.6078C9.45642 42.556 9.72946 42.486 9.99556 42.3978C10.1411 42.3445 10.2575 42.3011 10.3628 42.2577L10.3781 42.2507C10.4973 42.1989 10.5693 42.1667 10.6497 42.1261C10.798 42.056 10.9145 41.9986 11.042 41.9328C11.6421 41.6176 12.2159 41.2507 12.755 40.8375C12.8049 40.7997 12.8534 40.7619 12.9005 40.7227L12.9449 40.6877L13.132 40.535C13.1971 40.7703 13.265 41.0014 13.3801 41.3599C13.5755 41.9636 13.8083 42.5532 14.0786 43.1275C14.1715 43.3305 14.2519 43.4958 14.3544 43.7003L14.3613 43.7157L14.3683 43.7311L14.3863 43.7661L14.4182 43.8291C14.457 43.9034 14.4958 43.979 14.5318 44.0392C14.6358 44.2311 14.712 44.3543 14.7813 44.4678C15.0294 44.8585 15.301 45.2339 15.5935 45.591L15.6378 45.6443L15.6697 45.6807L15.739 45.7605C14.3309 46.7185 12.7412 47.374 11.0711 47.6849ZM33.5043 46.9468C32.2015 46.8417 30.9624 46.6863 29.8218 46.5C28.099 46.2423 26.4067 45.8039 24.7727 45.1919C24.8489 45.021 24.9182 44.8543 24.9806 44.6807C25.1192 44.3123 25.2328 43.9342 25.3188 43.5504C25.3617 43.3571 25.3964 43.1611 25.4227 42.9706C25.449 42.7801 25.4643 42.5924 25.4781 42.444C25.492 42.2955 25.51 42.0588 25.5211 41.7787C25.5516 41.098 25.535 40.4174 25.4726 39.7395C25.4407 39.4118 25.4047 39.1078 25.3687 38.8389C25.3548 38.7535 25.3423 38.6695 25.3285 38.5854L25.4005 38.605L25.474 38.6247C25.8122 38.7199 26.1656 38.8067 26.5232 38.881C27.4088 39.0798 28.3055 39.2297 29.2078 39.3319C29.46 39.3627 29.7289 39.3894 30.1682 39.43L30.2417 39.4356L30.311 39.4412H30.3429H30.3886H30.4039H30.4524H30.5175H30.5397H30.5743H30.6381L30.8044 39.4524C30.9555 39.4678 31.2146 39.4762 31.5986 39.4762H31.7025C32.2818 39.4762 32.8487 39.4482 33.428 39.3922C33.8078 39.3557 34.078 39.3235 34.279 39.2955L34.2707 39.2479C34.2056 38.9174 34.1515 38.6737 34.1044 38.4986C33.9741 38.0056 33.8036 37.5238 33.5957 37.0574C33.5084 36.8655 33.4308 36.7073 33.3643 36.5854C33.2825 36.4328 33.2035 36.2913 33.1148 36.1387C32.9457 35.8501 32.7475 35.5322 32.5272 35.1919C32.1058 34.5672 31.6498 33.965 31.162 33.3922C30.9291 33.1247 30.6935 32.8655 30.4427 32.6022L30.3637 32.5224L30.2847 32.4412C30.8113 32.2997 31.1897 32.1933 31.55 32.084C32.5507 31.7773 33.5056 31.4426 34.3899 31.0868C34.8611 30.902 35.3601 30.6919 35.8673 30.4622C36.1792 30.3207 36.3635 30.2381 36.5561 30.1471C36.764 30.0476 36.99 29.937 37.245 29.8025C38.1999 29.3067 39.1216 28.7465 40.0044 28.1275C40.1084 28.056 40.2068 27.9832 40.3079 27.9104L40.2636 27.8725L40.2179 27.8361C39.9615 27.6261 39.6967 27.4272 39.4223 27.2297C38.94 26.888 38.4327 26.584 37.9061 26.3207C37.7231 26.2283 37.5249 26.1345 37.3157 26.042C37.1424 25.965 36.9581 25.8894 36.7363 25.8025C36.3898 25.6653 35.9948 25.5196 35.5638 25.3697C34.7447 25.0924 33.8965 24.8501 33.0441 24.6513C32.7614 24.5854 32.3816 24.507 31.8841 24.4132L31.8023 24.3978L31.7413 24.3866L31.6193 24.3655L31.3976 24.3291L31.3546 24.3221L31.4267 24.2521C31.7843 23.916 32.1308 23.5756 32.4592 23.2409C33.2174 22.4678 33.9741 21.6247 34.7087 20.7353C35.0635 20.3053 35.3961 19.8852 35.6982 19.4846C35.8604 19.2745 36.0101 19.063 36.1473 18.881C36.3178 18.6429 36.4688 18.423 36.5977 18.2269C36.9969 17.6218 37.3669 16.9958 37.7023 16.3515C37.87 16.0294 38.0336 15.6989 38.186 15.3697C38.2276 15.2815 38.2678 15.1933 38.308 15.1036H38.168H37.8368C37.5249 15.1036 37.2561 15.1036 37.0482 15.119C36.3302 15.1485 35.6137 15.2171 34.9027 15.3235C34.6615 15.3599 34.3927 15.409 34.0836 15.4706C33.8937 15.507 33.6664 15.556 33.3393 15.6345C32.9346 15.7283 32.4856 15.8445 31.9658 15.9804C31.0151 16.2409 30.1059 16.5266 29.2632 16.8305C28.8862 16.9664 28.4746 17.1233 28.0422 17.2969L27.9271 17.3445L27.7664 17.4104L27.4961 17.5238L27.5252 17.4356C27.6527 17.0406 27.7802 16.619 27.905 16.1793C28.1766 15.1919 28.3984 14.1905 28.5647 13.1807C28.6215 12.8431 28.6797 12.4314 28.7449 11.9174C28.7726 11.6975 28.7906 11.5084 28.8058 11.3557L28.8128 11.2899C28.8322 11.0672 28.8446 10.8543 28.853 10.6401C28.8751 10.0406 28.8557 9.43978 28.7948 8.84314C28.7629 8.54482 28.7185 8.21989 28.6617 7.88095V7.85714C28.6617 7.85154 28.6617 7.84454 28.6617 7.83754V7.82633C30.9333 6.53782 33.3241 5.47759 35.8008 4.66247C37.3849 4.12185 39.1257 3.61765 40.9732 3.16106C40.8235 7.27451 39.9226 11.3249 38.3163 15.1078C42.3606 15.2927 46.3313 16.2717 50.0055 17.9916C47.2475 21.7395 43.9821 25.077 40.3066 27.909C42.732 30.063 44.5864 32.7969 45.6993 35.8599C42.057 37.5112 38.2165 38.6751 34.2762 39.3235C34.6477 41.8908 34.3857 44.5112 33.5112 46.951H33.5043V46.9468ZM15.8208 45.0294C15.5533 44.6891 15.3093 44.3291 15.0917 43.9538C15.01 43.8109 14.924 43.6513 14.8243 43.4538C14.7245 43.2563 14.6344 43.0686 14.5318 42.8473C14.299 42.3375 14.0939 41.8165 13.9137 41.2857C13.8444 41.091 13.7612 40.8221 13.6684 40.4874L13.6171 40.3053L13.5339 40.1779C13.8028 39.9244 14.0343 39.6933 14.2227 39.4888C14.5013 39.1877 14.7674 38.8768 15.0114 38.5672C15.1749 38.3655 15.3662 38.105 15.5796 37.7913C15.7473 37.5448 15.8984 37.2857 16.0328 37.0182L16.073 36.9314C16.1839 37.2101 16.3114 37.4818 16.4528 37.7465C16.5761 37.9832 16.7591 38.2997 17.0141 38.7101C17.2483 39.0826 17.5269 39.4818 17.8387 39.8964C18.066 40.2003 18.3086 40.493 18.5677 40.7703L18.4638 41.0308L18.443 41.0798C18.3501 41.3123 18.2254 41.5924 18.0716 41.9132C17.8346 42.3978 17.5698 42.8669 17.2788 43.3207C17.1513 43.5168 17.0321 43.6919 16.9115 43.8557C16.7715 44.0448 16.6814 44.1597 16.5914 44.2689C16.3848 44.514 16.1589 44.7409 15.9178 44.951L15.8263 45.0294H15.8208ZM24.49 44.5098L24.4567 44.4944L24.4414 44.4874H24.429L24.386 44.4678L24.3721 44.4608H24.3611C24.2779 44.4244 24.1823 44.3824 24.0714 44.3291L23.9952 44.2941L23.9716 44.2829C23.5835 44.098 23.2537 43.923 22.989 43.7619L22.9737 43.7535L22.91 43.7143L22.8822 43.6989L22.8587 43.6835L22.7977 43.6471C22.7367 43.6092 22.684 43.577 22.6355 43.542C22.587 43.507 22.5177 43.4636 22.4623 43.4258L22.4457 43.4146L22.4207 43.3978L22.393 43.3655L22.3791 43.3557L22.3417 43.3305H22.3362L22.296 43.3025L22.2336 43.2591L22.217 43.2465C21.9758 43.0826 21.7028 42.8824 21.402 42.6499C20.7188 42.1218 20.0715 41.549 19.4631 40.9356L19.1748 40.6373V40.6303C19.33 40.1835 19.4575 39.7549 19.5532 39.3599C19.7278 38.6527 19.8414 37.9314 19.8955 37.2059C19.9177 36.93 19.9274 36.612 19.9274 36.2591C19.9274 36.2451 19.9274 36.2325 19.9274 36.2185V36.1807C19.9274 36.1653 19.9274 36.1527 19.9274 36.1387V36.1022C20.2143 36.2955 20.5413 36.5028 20.9322 36.7339C21.4505 37.0504 21.9897 37.3319 22.5455 37.5756C23.1151 37.8361 23.6972 38.0644 24.2918 38.2619C24.4484 38.3151 24.5828 38.3557 24.641 38.3669L24.6743 38.3782L24.7103 38.3894L24.7741 38.409L24.8267 38.7157L24.8364 38.7773C24.8822 39.07 24.9182 39.3403 24.9404 39.5812C25.0111 40.2815 25.0319 40.986 25.0014 41.6891C24.9917 41.9986 24.9764 42.2577 24.9529 42.4594C24.9348 42.6359 24.9127 42.8459 24.8725 43.112C24.7852 43.5868 24.6563 44.0532 24.4886 44.5042L24.49 44.5098ZM7.74476 42.7311C7.15988 42.7311 6.57501 42.6793 5.99845 42.5784C5.43852 42.4916 4.88552 42.3655 4.34222 42.2031C4.08582 40.556 4.08027 38.8796 4.32697 37.2311C2.94933 36.6359 1.69226 35.7913 0.618139 34.7367C1.00344 33.1527 1.64237 31.6429 2.50721 30.2675C2.79271 30.6036 3.10594 30.9132 3.44412 31.1933C3.51619 31.2535 3.59934 31.3179 3.75596 31.4272C3.8405 31.486 3.91257 31.5322 4.00127 31.5924C4.13017 31.6793 4.25075 31.7549 4.39073 31.8347C4.7788 32.0616 5.17796 32.2689 5.58681 32.4552C5.79471 32.5448 6.00399 32.6317 6.23822 32.7171L6.40176 32.7745C6.28257 32.9342 6.14813 33.1246 5.96934 33.3894C5.68799 33.8165 5.4302 34.2591 5.19736 34.7157C5.11974 34.8697 5.0352 35.042 4.94234 35.2423L4.93541 35.2577L4.92432 35.2801L4.89799 35.3403C4.87166 35.3978 4.84394 35.4608 4.81622 35.528C4.76771 35.6443 4.72752 35.7465 4.69148 35.8515C4.55011 36.2423 4.43924 36.6443 4.36162 37.0532C4.34915 37.1134 4.33806 37.1709 4.32697 37.2311L4.43092 37.2703H4.44201L4.50299 37.2941L4.51962 37.2997L4.58338 37.3235L4.63327 37.3403L4.68594 37.3585C4.93818 37.4426 5.19736 37.5084 5.45931 37.556C5.59513 37.5798 5.71432 37.5966 5.82243 37.6078C5.89311 37.6148 5.96241 37.6218 6.02478 37.6261H6.06359H6.07467H6.11764H6.1509H6.15783C6.26178 37.6359 6.3976 37.6401 6.60411 37.6415H6.7732C7.1876 37.6443 7.602 37.6247 8.01502 37.5826C8.23539 37.5546 8.44467 37.5238 8.62346 37.4916L8.7967 37.4594C8.74819 37.7143 8.71493 37.8978 8.67751 38.1373C8.60267 38.6359 8.55277 39.1373 8.52921 39.6401C8.51535 39.8852 8.50842 40.1667 8.50981 40.465C8.50981 40.7171 8.51674 40.9216 8.5306 41.105C8.57079 41.5686 8.64286 42.028 8.74542 42.4804L8.76898 42.5742L8.79255 42.6695C8.4419 42.7073 8.09402 42.7297 7.74476 42.7311ZM9.18477 42.0644C9.11686 41.7143 9.06974 41.3613 9.04202 41.0056C9.03093 40.9006 9.02677 40.7297 9.02677 40.4608C9.02677 40.1527 9.02677 39.9678 9.03647 39.8613C9.05311 39.4874 9.09191 39.028 9.15012 38.493C9.1723 38.3151 9.20695 38.0994 9.24853 37.8487V37.8333L9.26932 37.7479C9.27625 37.7143 9.28179 37.6821 9.28733 37.6527L9.3497 37.3375C9.87082 37.1989 10.3822 37.0252 10.8812 36.8179C11.0891 36.7325 11.3316 36.6204 11.6255 36.472C11.9581 36.3053 12.2796 36.1148 12.5873 35.9048L12.6774 35.8389C12.6386 36.1429 12.622 36.4496 12.6275 36.7563C12.6275 37.1134 12.6414 37.458 12.6677 37.8095C12.6954 38.1807 12.7398 38.5868 12.8035 39.0182C12.8603 39.3964 12.9186 39.7087 12.9851 39.9734L12.7647 40.1555C12.536 40.3487 12.3254 40.5098 12.1396 40.6359C11.7377 40.923 11.3164 41.1849 10.8812 41.4174C10.7523 41.4874 10.6026 41.563 10.4266 41.6471H10.4183L10.4016 41.6541H10.3947L10.3753 41.6625C10.2575 41.7185 10.1411 41.7675 10.0191 41.8179C9.74747 41.9202 9.46889 42.0014 9.18616 42.0616L9.18477 42.0644ZM18.7687 40.2143L18.7493 40.1905L18.7077 40.1415L18.6703 40.098L18.644 40.0672L18.6038 40.0196L18.5802 39.9902L18.5705 39.979L18.5636 39.9692L18.5567 39.9608L18.5248 39.9216C18.2711 39.6064 18.073 39.3445 17.9316 39.1443C17.7916 38.9426 17.5837 38.6345 17.3204 38.2171C17.1374 37.9244 16.9891 37.6625 16.8783 37.437C16.7646 37.2241 16.6634 37.0056 16.5733 36.7829L16.3835 36.2899C16.8311 35.3193 17.1069 34.2759 17.1984 33.2087C17.7764 34.1681 18.5206 35.014 19.3965 35.7059L19.4049 36.1947C19.4049 36.3333 19.4049 36.444 19.4049 36.5686C19.3993 36.916 19.3813 37.2227 19.3522 37.4776C19.2898 38.1513 19.1692 38.8165 18.9918 39.4692C18.9156 39.7409 18.8422 39.9958 18.7715 40.2143H18.7687ZM13.4286 39.549V39.542C13.3094 38.9048 13.2262 38.2605 13.1805 37.612C13.1625 37.2535 13.1528 36.9944 13.1528 36.8193C13.15 36.5616 13.1597 36.3025 13.1819 36.0462V36.0224C13.1819 36.0112 13.1819 36.0042 13.1819 35.9972C13.1819 35.9902 13.1819 35.972 13.1819 35.9482L13.247 35.409C14.0246 34.7941 14.6967 34.0532 15.2359 33.2157C15.2511 34.2507 15.4382 35.2745 15.7903 36.2465L15.5741 36.7367L15.5671 36.7535C15.4715 36.9552 15.362 37.1499 15.24 37.3361C15.1084 37.5462 14.9698 37.7409 14.8173 37.944C14.5637 38.2773 14.3378 38.5574 14.1465 38.7731C13.9553 38.9888 13.7141 39.2549 13.423 39.5462L13.4286 39.549ZM31.6665 38.9734C31.4794 38.9734 31.392 38.9734 31.32 38.9734C31.1052 38.9734 30.9222 38.9608 30.7753 38.9496C30.5508 38.9342 30.3914 38.9216 30.207 38.9062C29.6762 38.8613 29.2577 38.8151 28.9278 38.7689C28.1004 38.6639 27.3021 38.5238 26.5537 38.3473C26.2072 38.2675 25.8967 38.1905 25.6015 38.112L25.5405 38.0952L25.2453 38.0154C25.1705 37.6218 25.0721 37.2325 24.9529 36.8501C24.7588 36.2339 24.5274 35.6303 24.2627 35.0434C24.1296 34.7381 23.9508 34.3824 23.7415 33.9902C23.6764 33.8726 23.6071 33.7465 23.5336 33.6233C23.4602 33.5014 23.3784 33.3796 23.3147 33.2899C23.3008 33.2731 23.2869 33.2549 23.2731 33.2381H23.3465H23.42C23.6501 33.2577 23.9827 33.2689 24.4373 33.2689H24.4789C25.0388 33.2689 25.6944 33.2311 26.4261 33.1639C27.291 33.0728 28.1517 32.937 29.0026 32.7563C29.2105 32.7157 29.4337 32.6667 29.6762 32.6064L29.952 32.8866L30.0047 32.9384L30.056 32.9916C30.3221 33.2689 30.5577 33.528 30.7545 33.7577C31.2645 34.3515 31.7358 34.9776 32.1654 35.6345C32.3026 35.8445 32.4662 36.1078 32.6505 36.4244C32.724 36.549 32.796 36.6765 32.8917 36.8543C32.9319 36.9244 32.9859 37.0364 33.0704 37.2157C33.3158 37.7423 33.5056 38.2941 33.6373 38.8599H33.6013C33.3476 38.888 33.1314 38.9076 32.8986 38.9216C32.4232 38.9594 32.0074 38.9734 31.6665 38.9734ZM24.6812 37.8473L24.6313 37.8319C24.3943 37.7563 24.1435 37.6695 23.8413 37.5588C23.4242 37.4048 23.0084 37.2297 22.5981 37.0322C22.1352 36.8137 21.6889 36.5784 21.2704 36.3319C21.0417 36.1961 20.8199 36.0602 20.5899 35.9104L20.5705 35.8992L20.5511 35.8866L20.5386 35.8782L20.4762 35.8375L20.3723 35.7675L19.9024 35.4524C19.8248 34.3067 19.5351 33.1863 19.0459 32.1499C20.145 32.6919 21.3286 33.035 22.5455 33.1639L22.8975 33.5854V33.5924L22.9113 33.6078C22.9599 33.6737 23.0097 33.7493 23.068 33.8459C23.1359 33.958 23.1913 34.056 23.2592 34.1765C23.4144 34.4622 23.5627 34.7605 23.7138 35.0854C23.8968 35.4874 24.0742 35.9146 24.2405 36.3585C24.4193 36.8445 24.569 37.3417 24.6854 37.8473H24.6812ZM6.76488 37.1232H6.60827C6.42255 37.1232 6.29643 37.1162 6.18278 37.1078C6.03448 37.0994 5.91252 37.0882 5.77946 37.0728C5.49118 37.0364 5.20706 36.9734 4.92987 36.8852V36.8796C5.00332 36.5392 5.1045 36.2045 5.23339 35.8824C5.30131 35.7059 5.37753 35.5364 5.45099 35.3796C5.55494 35.1695 5.63255 35.0014 5.70046 34.8726C5.89311 34.4874 6.10932 34.1148 6.34909 33.7577C6.4378 33.6176 6.53758 33.472 6.65539 33.3095L6.75934 33.1639L6.91179 32.9594C7.01574 32.9916 7.17374 33.0336 7.41213 33.0896C7.66021 33.1471 7.91107 33.1905 8.16332 33.2199C8.43081 33.2563 8.72463 33.2829 9.03925 33.2983C9.20972 33.3081 9.39821 33.3123 9.60056 33.3123C9.78351 33.3123 9.9526 33.3123 10.1023 33.3011L10.2506 33.2913L10.3892 33.2801L10.3545 33.3375C10.2644 33.4818 10.1591 33.6681 10.0233 33.9244C9.57977 34.7745 9.23328 35.6723 8.98935 36.6008C8.96025 36.7059 8.93669 36.8025 8.9159 36.8908L8.61098 36.9496C8.39062 36.9916 8.16886 37.0252 7.95127 37.0546C7.55627 37.0994 7.15711 37.1218 6.75934 37.1218L6.76488 37.1232ZM9.49939 36.7437C9.64491 36.1919 9.82647 35.6513 10.0441 35.1246C10.1854 34.7801 10.3448 34.444 10.5195 34.1148C10.6054 33.958 10.6802 33.8249 10.7731 33.6681C10.8368 33.5602 10.902 33.4538 10.9671 33.3473L11.0129 33.2717L11.06 33.1933C11.9775 33.0364 12.8617 32.7199 13.6711 32.2577C13.2165 33.1569 12.9116 34.1246 12.7689 35.1246L12.3392 35.4342C11.947 35.7003 11.534 35.9342 11.1057 36.1359C10.586 36.3796 10.0496 36.5826 9.49939 36.7437ZM9.60333 32.7857H9.48691C9.2707 32.7857 8.99905 32.7703 8.68444 32.7465C8.45991 32.7297 8.17718 32.6933 7.84178 32.6415C7.5632 32.5882 7.39134 32.5518 7.27076 32.5168L7.27769 32.5098C7.40935 32.3557 7.50637 32.2437 7.58953 32.1597C7.82376 31.9006 8.08848 31.6331 8.37676 31.374C8.61376 31.1639 8.87848 30.944 9.16398 30.7297C9.34277 30.6008 9.45504 30.5196 9.57284 30.444L9.72668 30.3389L9.84172 30.2675L9.92349 30.2157L10.1397 30.0812C10.9754 30.4202 11.868 30.5966 12.7689 30.6022H12.8035C12.0121 31.1891 11.3233 31.9048 10.7634 32.7185L10.3088 32.7591H10.2672C10.1064 32.7787 9.88745 32.7871 9.60195 32.7871H9.60333V32.7857ZM24.4789 32.7479H24.4276C24.1241 32.7479 23.876 32.7409 23.6681 32.7297L23.5641 32.7241L23.4602 32.7185L22.8919 32.6821C22.1768 31.7087 21.2787 30.8852 20.2489 30.2605C21.6363 30.1176 22.9917 29.7493 24.2627 29.1695L24.8157 29.3922C25.0443 29.486 25.2051 29.556 25.3229 29.6106C25.7623 29.8137 26.1295 30 26.4151 30.1639C27.1288 30.5658 27.8093 31.0224 28.451 31.5322C28.6756 31.7087 28.9264 31.9202 29.2161 32.1779L29.1898 32.1849C28.1517 32.416 27.0997 32.5798 26.0422 32.6765C25.5391 32.7241 25.0166 32.7479 24.4789 32.7479ZM6.74271 32.3361L6.49323 32.2479C6.24237 32.1569 6.04557 32.0784 5.87371 32.0042C5.4801 31.8347 5.09757 31.6415 4.72752 31.4258C4.57645 31.3389 4.43092 31.2493 4.28124 31.1485C4.10106 31.0294 3.99157 30.9538 3.89178 30.8754C3.67141 30.7073 3.46213 30.5224 3.26671 30.3249L3.22929 30.2801L3.18633 30.2367V30.2311C3.38036 29.9608 3.59657 29.7073 3.83357 29.4734C3.96108 29.3487 4.08997 29.2339 4.23827 29.112C4.35608 29.014 4.50022 28.902 4.7095 28.7381C5.02134 28.5056 5.34981 28.2829 5.6866 28.0798C5.85708 27.9748 6.03448 27.8782 6.2299 27.7731C6.30751 27.7311 6.30752 27.7311 6.38651 27.6919L6.59441 27.5868L6.61104 27.605C6.90902 27.9244 7.22502 28.2255 7.55765 28.5098C7.90692 28.8109 8.27835 29.0854 8.66781 29.3319C8.83551 29.437 9.01014 29.542 9.21526 29.6555L9.29842 29.7003L9.38158 29.7437L9.42316 29.7661L9.48553 29.7983L9.54789 29.8305L9.49246 29.8641C9.31367 29.9776 9.13765 30.0966 8.95193 30.2283C8.53476 30.5266 8.13976 30.8557 7.77109 31.2129C7.47172 31.4986 7.1876 31.8011 6.91872 32.1176C6.84388 32.2059 6.78706 32.2745 6.73301 32.3403L6.74271 32.3361ZM29.8301 32.0364L29.7261 31.9426C29.3159 31.5588 28.8862 31.1989 28.4372 30.8641C27.7151 30.3193 26.9487 29.8361 26.1462 29.4202C25.8052 29.2465 25.4518 29.084 25.0956 28.9356L24.9196 28.8641C25.1663 28.7437 25.4546 28.5966 25.7983 28.4132C26.555 27.9972 27.2882 27.5406 27.9951 27.0448C28.7851 26.4944 29.5709 25.8866 30.3332 25.2269L30.3928 25.1751L30.4357 25.1373L30.5064 25.0756L30.584 25.0084L30.6575 24.9454L30.7199 24.8894L30.8557 24.7675L31.3588 24.8473L31.4447 24.8627C31.8771 24.9356 32.2777 25.0126 32.6644 25.0966C33.6193 25.3025 34.5604 25.5672 35.4848 25.8894C35.8562 26.0182 36.2138 26.1499 36.5451 26.2815L36.5714 26.2927C36.7613 26.3669 36.9193 26.4328 37.0551 26.493C37.238 26.5742 37.3933 26.6471 37.5194 26.7031C37.9269 26.9006 38.3205 27.1233 38.7002 27.3697C38.8915 27.4944 39.0758 27.619 39.2602 27.7521L39.4306 27.8782L39.4071 27.8936L39.3461 27.9342C38.5727 28.4678 37.7675 28.9524 36.9359 29.3852C36.7682 29.4734 36.5852 29.5616 36.3469 29.6779L36.3261 29.6891C36.0475 29.8221 35.8313 29.9202 35.6483 29.9986C35.288 30.1625 34.8625 30.3431 34.3816 30.5378C33.4987 30.8922 32.6768 31.1919 31.9353 31.4286C31.5944 31.5336 31.1828 31.6639 30.6741 31.8081L30.6131 31.8249L30.5619 31.8403L30.4676 31.8655L30.4233 31.8768L30.3193 31.9048L29.8328 32.0322L29.8301 32.0364ZM2.50721 30.2647C1.44694 28.9188 0.601508 27.4132 0 25.8025C0.999279 24.4412 2.24249 23.2801 3.66448 22.3796C3.79199 22.8992 3.95969 23.4076 4.1662 23.902C4.22303 24.0294 4.2854 24.1667 4.35885 24.3235C4.41152 24.4286 4.4628 24.5336 4.51962 24.6317C4.62357 24.8207 4.70396 24.9706 4.7788 25.1008C5.05322 25.5658 5.33596 26.0042 5.62424 26.402C5.76699 26.5994 5.92499 26.8039 6.10932 27.0336L6.23406 27.1835C6.07467 27.2619 5.85985 27.3754 5.58127 27.535C5.13083 27.7969 4.69703 28.0882 4.28401 28.4062C4.14264 28.5112 4.01375 28.6162 3.86683 28.7395C3.77675 28.8165 3.70468 28.8782 3.63399 28.9412C3.53005 29.0462 3.45105 29.1134 3.38729 29.1779C3.1004 29.4706 2.83845 29.7871 2.60561 30.1247L2.57235 30.1737L2.50582 30.2717L2.50721 30.2647ZM10.1037 29.5098L9.72807 29.3249L9.6754 29.2997L9.62274 29.2717C9.33446 29.1176 9.07251 28.965 8.8466 28.8179C8.21321 28.3978 7.62972 27.9076 7.10306 27.3585L7.14325 27.3417C7.41628 27.2367 7.66437 27.1401 7.8792 27.07C8.45021 26.8866 9.03648 26.7549 9.62967 26.6779C9.74609 26.6639 9.86528 26.6541 9.97616 26.6457H10.0011H10.0302L10.3116 26.6275L10.7163 26.605C11.2831 27.409 11.9969 28.0952 12.8202 28.6275C11.8666 28.7507 10.9449 29.0504 10.0995 29.5112L10.1037 29.5098ZM24.2266 28.6134C23.1068 28.2311 21.9329 28.0322 20.7506 28.0238C20.5982 28.0238 20.4915 28.0238 20.382 28.0308C21.5836 27.1919 22.6536 26.1751 23.5544 25.014L24.1559 24.909C24.3708 24.8712 24.5856 24.8347 24.8018 24.7983L24.8503 24.7913L24.8988 24.7843L24.9376 24.7787C25.0734 24.7563 25.1885 24.7381 25.3077 24.7227C25.4518 24.7017 25.6126 24.6821 25.8177 24.6625C26.483 24.5952 27.151 24.5616 27.8204 24.563C28.5993 24.5616 29.3782 24.605 30.153 24.6919L30.0934 24.7423C29.7538 25.0364 29.4254 25.3081 29.0913 25.5756C28.1503 26.3263 27.1593 27.0098 26.1254 27.6247C25.7817 27.8263 25.4061 28.0336 24.9792 28.2563L24.8808 28.3053L24.7893 28.3501L24.2336 28.6205L24.2266 28.6134ZM6.73301 26.9468L6.62906 26.8291C6.45165 26.619 6.29504 26.423 6.16199 26.2451C5.8446 25.8235 5.55078 25.3824 5.28467 24.9258C5.16548 24.7227 5.06708 24.5448 4.98115 24.3838C4.86611 24.1639 4.7885 24.0084 4.72336 23.8669C4.54734 23.4706 4.39904 23.063 4.27847 22.6471C4.59031 22.4888 4.91462 22.3585 5.24864 22.2577C5.38585 22.2171 5.5688 22.1751 5.78917 22.1331C6.00953 22.0896 6.20634 22.0602 6.40037 22.0336C6.83418 21.9776 7.26937 21.9482 7.70595 21.9468H7.74753C7.99562 21.9468 8.21321 21.9552 8.392 21.9706L8.69553 21.9944C8.7177 22.0826 8.73988 22.1793 8.76898 22.2885C9.024 23.2815 9.38435 24.2437 9.84172 25.1597C9.97616 25.4272 10.1286 25.7017 10.2963 25.9748L10.3157 26.0042L10.3337 26.0322L10.367 26.0854C10.3601 26.0798 10.3518 26.0784 10.3434 26.0784C10.3254 26.0798 10.3074 26.0854 10.2922 26.0952H10.3712C10.0801 26.1106 9.85835 26.1247 9.65461 26.1457C9.49661 26.1611 9.33446 26.1863 9.22774 26.2031C8.55277 26.3123 7.89028 26.4888 7.24858 26.7297C7.06564 26.7997 6.88823 26.8712 6.72746 26.9398L6.73301 26.9468ZM13.7751 26.7717C12.9033 26.3613 11.9595 26.1331 10.9976 26.1008L10.78 25.7549C10.6428 25.5364 10.5056 25.2983 10.3739 25.0462C10.0468 24.4118 9.77242 23.7507 9.55067 23.0714C9.43979 22.7353 9.34277 22.3992 9.261 22.07L9.29426 22.0756C9.50909 22.112 9.68372 22.1471 9.83063 22.1807C10.2021 22.2633 10.5693 22.3683 10.9283 22.4958C11.2803 22.6232 11.6255 22.7731 11.9581 22.9454C12.0897 23.0126 12.2394 23.0952 12.4155 23.1989L12.457 23.2241H12.464L12.5249 23.2605L12.9061 23.5C13.0073 24.6275 13.3011 25.7297 13.7723 26.7563V26.7717H13.7751ZM19.3702 26.1751C20.0188 24.958 20.4748 23.6457 20.7243 22.2871L21.269 21.8305C21.5379 21.6078 21.8137 21.388 22.1144 21.1639C22.8864 20.591 23.6903 20.063 24.5232 19.5854C24.9321 19.3501 25.3687 19.1134 25.8219 18.881C25.9452 18.8165 26.0935 18.7437 26.3167 18.6359L26.3901 18.6008L26.4747 18.5602L26.5038 18.5448L26.5398 18.528L26.5883 18.5042C26.1988 19.5196 25.7498 20.5112 25.2425 21.4734C24.8115 22.3067 24.3223 23.1064 23.7776 23.8683L23.6736 24.0126L23.2384 24.584C21.8774 24.9076 20.5746 25.444 19.3771 26.1709L19.3702 26.1751ZM15.4798 25.5168C14.9434 24.6219 14.2352 23.8459 13.3967 23.2339L13.3718 22.7535C13.3607 22.5182 13.3537 22.3025 13.3524 22.0952C13.3496 21.416 13.387 20.7367 13.4646 20.063C13.5519 19.3039 13.6767 18.5504 13.8402 17.8039L13.8472 17.8109C14.0273 17.9944 14.1923 18.1709 14.3364 18.3375C14.6316 18.6765 14.906 19.0322 15.1597 19.4034C15.4105 19.7703 15.6392 20.1541 15.8457 20.549C15.9441 20.7381 16.0467 20.9524 16.1492 21.1807L16.3821 21.7143C15.8914 22.9258 15.5865 24.2087 15.4798 25.5168ZM17.5449 25.2633C17.5477 24.0364 17.3315 22.8179 16.906 21.6681L17.161 21.2115L17.2178 21.1064L17.2843 20.986C17.5241 20.5518 17.7805 20.0882 18.0369 19.6373C18.3598 19.07 18.6883 18.5196 19.0376 17.9524C19.4464 17.2983 19.8331 16.7227 20.2184 16.1919L20.2364 16.1681V16.1611V16.1555L20.2434 16.1471V16.1541C20.3833 17.0126 20.461 17.881 20.4762 18.7521C20.4845 19.1106 20.4762 19.4888 20.4665 19.8964C20.4499 20.3585 20.4152 20.7759 20.3626 21.1709L20.3542 21.2311L20.3459 21.2899C20.3113 21.5224 20.2766 21.7423 20.2295 22.0266C19.1817 22.9664 18.2739 24.056 17.5338 25.2577L17.5449 25.2633ZM24.0326 24.4006L24.0783 24.3389L24.095 24.3151L24.1102 24.2941C24.1601 24.2283 24.2072 24.1653 24.2543 24.1008C24.5038 23.7535 24.7505 23.3796 25.0041 22.9594C25.2578 22.5378 25.5142 22.084 25.7609 21.6092C26.2834 20.6092 26.7449 19.577 27.1427 18.5196C27.1843 18.4146 27.2245 18.2983 27.2633 18.1891L27.7844 17.9678L27.8731 17.93C28.3055 17.7493 28.7352 17.5798 29.1523 17.4258C30.1669 17.0504 31.2271 16.7143 32.3026 16.4286C32.7406 16.3123 33.1647 16.2073 33.5597 16.1134C33.6692 16.0882 33.8979 16.035 34.1182 15.9916C34.3137 15.951 34.5077 15.9146 34.7142 15.8796C35.6289 15.7241 36.5548 15.6401 37.482 15.6261L37.4667 15.6583C37.0579 16.4846 36.5963 17.2829 36.0849 18.049C35.9602 18.2353 35.8424 18.4048 35.7246 18.5686C35.6068 18.7311 35.4709 18.9174 35.2838 19.1611C35.0094 19.5224 34.7281 19.8796 34.4509 20.2241C33.6969 21.1499 32.9027 22.0392 32.092 22.8669C31.8134 23.1527 31.5043 23.4566 31.1495 23.7941L30.6908 24.2241C30.408 24.1877 30.135 24.1569 29.88 24.1331C29.1884 24.0686 28.4982 24.0364 27.826 24.0364C27.0817 24.035 26.3374 24.0756 25.5973 24.1569H25.5558C25.4615 24.1681 25.3548 24.1807 25.2439 24.1947C25.0041 24.2283 24.7644 24.2689 24.5149 24.3095L24.0381 24.3922L24.0326 24.4006ZM12.8576 22.8571C12.6344 22.7185 12.4196 22.5952 12.1979 22.4804C11.6753 22.2115 11.1307 21.993 10.568 21.8277C10.1549 21.7059 9.73361 21.6106 9.30812 21.5434C9.24714 21.5336 9.18893 21.5238 9.12795 21.5168L9.07944 21.2871L9.06281 21.2297C8.87986 20.3179 8.75928 19.3936 8.70246 18.465C8.68305 18.1401 8.66919 17.8333 8.66226 17.5308C8.65534 17.2283 8.65534 16.986 8.66226 16.7549C8.68028 16.2689 8.72325 15.7843 8.79116 15.3025C8.80363 15.2171 8.81472 15.1317 8.82858 15.0462C9.19725 15.0798 9.56176 15.1513 9.91656 15.2619C10.1092 15.3249 10.2977 15.3978 10.482 15.4804C10.6844 15.5686 10.8812 15.6625 11.0669 15.7577C11.5146 15.9874 11.9442 16.2479 12.3559 16.5392C12.5527 16.6779 12.7495 16.8263 12.9574 16.993L12.9989 17.0266L13.0405 17.0602L13.1237 17.1303L13.2484 17.2353L13.3357 17.3095L13.3676 17.3375L13.4036 17.3697L13.3939 17.409C13.387 17.4426 13.3787 17.4762 13.3718 17.514L13.3565 17.5826L13.3454 17.6289C13.1819 18.3655 13.0558 19.1022 12.9712 19.8095C12.8894 20.4804 12.8423 21.1555 12.834 21.8319C12.834 22.0994 12.834 22.381 12.8493 22.6933C12.8493 22.7479 12.8548 22.7983 12.859 22.8585L12.8576 22.8571ZM3.66587 22.3782L3.65478 22.3347C3.20019 20.2171 3.02417 18.0476 3.13366 15.8838C3.75873 15.5742 4.40182 15.3053 5.06015 15.0798C6.0913 14.7129 7.17374 14.5154 8.26588 14.4944H8.39477C8.27142 15.1779 8.18965 15.8697 8.14946 16.5644C8.14114 16.7619 8.13698 16.93 8.1356 17.0798C8.13421 17.2297 8.1356 17.3824 8.14114 17.5434C8.14807 17.7899 8.15777 18.0224 8.17025 18.2955C8.22014 19.2563 8.33656 20.2129 8.51674 21.1583C8.53614 21.2577 8.55693 21.3557 8.57772 21.4538C8.35597 21.4328 8.09541 21.4216 7.80435 21.4174H7.70734C7.19592 21.416 6.68588 21.451 6.18001 21.5224C5.99706 21.5476 5.81827 21.5784 5.63671 21.6148L5.5979 21.6219L5.53692 21.6345L5.4801 21.6471C5.42189 21.6583 5.37615 21.6709 5.32487 21.6821C5.18904 21.7143 5.07539 21.7465 4.98531 21.7759C4.69841 21.8641 4.41983 21.9762 4.15234 22.112C4.02899 22.1723 3.90703 22.2353 3.7712 22.3109L3.74348 22.3263L3.72824 22.3347H3.71992H3.71161L3.6922 22.3459L3.66171 22.3641L3.66587 22.3782ZM20.8601 21.4804C20.8629 21.4748 20.8629 21.4692 20.8601 21.465V21.4468C20.9363 20.9398 20.9821 20.4286 20.9987 19.9146C21.0195 19.388 21.0181 18.8487 20.9987 18.2969C20.9752 17.7269 20.9266 17.1695 20.8587 16.6429C20.8102 16.2675 20.7548 15.9202 20.6799 15.5784L20.9835 15.2143L21.0417 15.1443C21.3494 14.7801 21.6279 14.4594 21.8954 14.1639C22.5898 13.395 23.3368 12.6359 24.1171 11.9076C24.4969 11.5518 24.8628 11.2213 25.2051 10.923C25.3396 10.8053 25.4823 10.6807 25.6223 10.5658C25.8052 10.4118 25.9729 10.2759 26.1365 10.1443C26.5412 9.82913 26.9819 9.5042 27.4448 9.19188C27.6929 9.02521 27.9382 8.86415 28.196 8.70308L28.2237 8.68627L28.2515 8.66807L28.2584 8.71989C28.2875 8.97199 28.3083 9.23109 28.3235 9.4902C28.3457 9.91877 28.3457 10.3473 28.3235 10.7759C28.3152 10.9468 28.3027 11.119 28.2875 11.2857C28.2722 11.4524 28.2515 11.6401 28.2265 11.8403C28.1822 12.2017 28.1336 12.5546 28.081 12.8936C27.9244 13.8894 27.7165 14.8754 27.4559 15.8487C27.3381 16.2871 27.2064 16.7339 27.0637 17.1751C26.9958 17.3852 26.9279 17.5882 26.8558 17.7955C26.6784 17.874 26.4885 17.9636 26.2903 18.056C24.921 18.7031 23.6071 19.4636 22.3639 20.3305C21.9675 20.6092 21.5739 20.9048 21.1969 21.2073L21.0292 21.3445L20.8726 21.4748L20.8601 21.4804ZM16.6565 21.0322C16.5207 20.7227 16.3779 20.4272 16.2296 20.1513C15.678 19.1247 14.9795 18.1877 14.1562 17.3683C14.098 17.3109 14.037 17.2507 13.9774 17.1933L14.0647 16.8571C14.1507 16.528 14.2394 16.2073 14.3309 15.8992C14.5609 15.1233 14.8353 14.3207 15.1472 13.5112C15.2872 13.1499 15.4355 12.7843 15.6032 12.3908C15.7334 12.0882 15.9067 11.6891 16.1049 11.2955C16.4431 10.6176 16.8159 9.96078 17.2247 9.32353L17.2483 9.34734C17.3606 9.45938 17.4687 9.57283 17.5671 9.68487C17.7736 9.91877 17.9635 10.1681 18.1353 10.43C18.2836 10.6555 18.4125 10.888 18.5192 11.0868C18.6343 11.3025 18.7493 11.5308 18.8699 11.7843C19.2122 12.5126 19.5019 13.2661 19.7361 14.0364C19.822 14.3179 19.9024 14.6078 19.9828 14.9258L20.102 15.4146L20.1131 15.4552C19.7444 15.9356 19.3674 16.472 18.9586 17.0994C18.4208 17.9258 17.8706 18.8473 17.2275 20L17.0196 20.374C16.9004 20.591 16.7812 20.8067 16.6607 21.0224L16.6565 21.0322ZM13.5422 16.8011L13.5007 16.7661C13.2831 16.5812 13.0599 16.4048 12.8396 16.2395C12.4002 15.916 11.9401 15.6247 11.4591 15.3683C11.1916 15.2269 10.938 15.1008 10.6941 14.9972C10.5541 14.9342 10.4405 14.8922 10.3296 14.8473C10.2187 14.8025 10.1051 14.7703 9.97893 14.7367C9.66016 14.6415 9.33307 14.5756 9.00183 14.5392C8.83551 14.5224 8.68305 14.5112 8.53198 14.5028H8.39616C8.9949 11.6289 9.92903 8.83754 11.1806 6.18768C13.3399 6.38936 15.398 7.20448 17.118 8.53922C16.9226 8.83193 16.7895 9.03641 16.6593 9.2465C16.3086 9.80812 16.0079 10.3389 15.7362 10.8697C15.6253 11.0868 15.5089 11.3263 15.3925 11.5812C15.3454 11.6863 15.301 11.7843 15.2581 11.881L15.2068 11.9958L15.1915 12.0308L15.1777 12.0616L15.1541 12.1134C15.0308 12.3992 14.9199 12.6667 14.8132 12.93C14.5013 13.7157 14.2214 14.4888 13.9899 15.2241C13.886 15.556 13.782 15.8894 13.6947 16.2143C13.667 16.3137 13.6393 16.4132 13.6129 16.5126L13.5533 16.7353L13.5478 16.7577C13.5422 16.7815 13.5367 16.7997 13.5339 16.8067L13.5422 16.8011ZM20.5206 14.9468L20.5039 14.8768C20.4166 14.521 20.3251 14.1877 20.2337 13.888C20.005 13.1387 19.7264 12.4076 19.4007 11.6961C19.2663 11.4062 19.1235 11.119 18.9766 10.8431C18.8879 10.6779 18.8158 10.549 18.7493 10.4356C18.6717 10.3025 18.5955 10.1793 18.5206 10.0728C18.2933 9.73529 18.0369 9.41877 17.7556 9.12605C17.61 8.97199 17.4437 8.81092 17.2455 8.63866L17.1194 8.53361C19.3536 5.39636 21.9439 2.53221 24.8378 0C26.7588 2.22549 28.0727 4.92017 28.6465 7.81513C28.3346 8.0028 28.0602 8.16667 27.7969 8.33193C27.2037 8.70588 26.6451 9.09104 26.1365 9.47759C25.8787 9.67367 25.6264 9.87395 25.3881 10.0714C25.2162 10.2143 25.0499 10.3599 24.939 10.4552L24.9071 10.4832L24.8656 10.5238C24.5593 10.7927 24.3056 11.0182 24.0686 11.2367C23.3396 11.9048 22.6106 12.6261 21.9024 13.3824C21.6279 13.6765 21.3258 14.014 21.0056 14.3796L20.7617 14.6639L20.6578 14.7885L20.6051 14.8515L20.5261 14.9454L20.5206 14.9468Z" fill="white"/>
<g clip-path="url(#clip1_1_1131)">
<path d="M17.4647 8.52941C19.7452 5.39216 22.3869 2.53081 25.3349 0C27.288 2.22969 28.6258 4.92157 29.2199 7.81653C31.537 6.52801 33.977 5.46779 36.503 4.65266C38.2204 4.07983 39.9928 3.58543 41.7779 3.15126C41.6213 7.26471 40.7026 11.3151 39.0685 15.098C43.1962 15.2899 47.2477 16.2717 51 17.9888C48.1819 21.7325 44.8529 25.0686 41.1076 27.9006C43.5758 30.0602 45.4654 32.7927 46.6084 35.8543C42.8914 37.5028 38.9753 38.6681 34.9563 39.3207C35.3232 41.8894 35.0551 44.507 34.1759 46.9496C32.9002 46.8445 31.633 46.6989 30.418 46.5028C28.661 46.2423 26.9352 45.8039 25.2686 45.1947C24.333 47.0602 22.998 48.7003 21.3568 50.0014C19.391 48.8515 17.6059 47.4216 16.0564 45.7591C14.617 46.7157 12.9955 47.3697 11.2908 47.6807C10.2677 46.1345 9.48312 44.444 8.96381 42.6681C8.01691 42.7745 7.05872 42.7451 6.11887 42.5812C5.54875 42.4874 4.98569 42.3627 4.42969 42.2059C4.17003 40.5574 4.16439 38.8781 4.41134 37.2269C3.00863 36.633 1.72728 35.7899 0.629386 34.7381C1.02452 33.1541 1.67507 31.6443 2.55564 30.2675C1.47468 28.9188 0.612452 27.4132 0 25.8025C1.02452 24.444 2.29034 23.2829 3.73821 22.3795L3.72692 22.3347C3.26688 20.2171 3.08766 18.0476 3.19632 15.8838C3.83417 15.5742 4.49037 15.3067 5.16209 15.0798C6.25434 14.6975 7.40445 14.5 8.56162 14.4958C9.17407 11.6218 10.128 8.83053 11.4009 6.17927C13.6009 6.38936 15.698 7.20308 17.4577 8.53081L17.4647 8.52941Z" fill="#7DCDF1"/>
<path d="M20.9377 14.944C22.339 13.2998 23.8757 11.7732 25.531 10.3796C26.6769 9.41182 27.9103 8.55328 29.2185 7.81519C29.4442 9.03647 29.4908 10.283 29.3582 11.5169C29.1366 13.5575 28.6949 15.5701 28.0401 17.5169C30.1428 16.6471 32.323 15.9734 34.5527 15.5043C36.0373 15.1975 37.5529 15.0617 39.0699 15.1009C38.425 16.5183 37.6263 17.8614 36.6892 19.1079C35.2781 20.9804 33.7004 22.7227 31.9745 24.3138C33.984 24.6261 35.9498 25.1709 37.8323 25.9384C39.0177 26.4258 40.1226 27.0897 41.1076 27.9048C39.846 28.8166 38.4984 29.6037 37.083 30.2578C35.0833 31.1723 33.0075 31.9118 30.8766 32.4636C32.0719 33.6443 33.0978 34.9818 33.9276 36.4398C34.4299 37.3348 34.7771 38.3082 34.9535 39.318C33.6862 39.4931 32.4049 39.5393 31.1278 39.4566C29.337 39.3348 27.5617 39.0421 25.8274 38.5841C26.0631 39.9692 26.104 41.3796 25.953 42.776C25.8542 43.6135 25.6214 44.4286 25.2629 45.1933C24.3485 44.8516 23.4735 44.4118 22.6551 43.881C21.4598 43.0995 20.352 42.1933 19.3487 41.1807L19.3416 41.1737L19.3487 41.1807C18.8957 42.2942 18.2988 43.3432 17.5706 44.3026C17.1416 44.8614 16.6293 45.353 16.0507 45.7578C15.5328 45.1751 15.0855 44.5337 14.7186 43.8474C14.1569 42.7914 13.711 41.6765 13.3907 40.5253C12.5778 41.1905 11.6803 41.7466 10.7221 42.1793C10.1619 42.4286 9.5678 42.5925 8.95958 42.6653C8.786 42.0141 8.69004 41.3432 8.67452 40.6695C8.65476 39.5911 8.75213 38.5127 8.96522 37.4538C8.01832 37.6359 7.05025 37.6919 6.08924 37.6205C5.51207 37.5729 4.94619 37.4412 4.40853 37.2283C4.51719 36.6065 4.69923 36.0001 4.95183 35.4202C5.37236 34.4804 5.90014 33.5925 6.52388 32.7718C5.60238 32.4566 4.72745 32.0239 3.91744 31.4861C3.41082 31.1415 2.95501 30.7311 2.55847 30.2648C2.90844 29.7452 3.32474 29.2718 3.7989 28.8586C4.57787 28.1919 5.4401 27.6247 6.36301 27.1709C5.6419 26.3306 5.02098 25.4104 4.51154 24.4286C4.17568 23.7732 3.91744 23.0827 3.74245 22.3684C4.30692 22.0407 4.91796 21.8026 5.55581 21.6597C6.60573 21.4342 7.68387 21.3628 8.75355 21.4482C8.4699 20.0925 8.3189 18.7129 8.30479 17.3292C8.29632 16.3768 8.38382 15.4244 8.56586 14.4889C9.29403 14.4959 10.0151 14.6359 10.6911 14.9048C11.8271 15.367 12.8812 16.0043 13.8154 16.7956C14.2727 15.0729 14.8738 13.3922 15.6133 11.769C16.134 10.6359 16.7549 9.55048 17.4676 8.52667C18.1746 9.0981 18.7673 9.79418 19.2174 10.5813C19.9879 11.951 20.5679 13.4188 20.9377 14.944Z" fill="#00AAE7"/>
<path d="M16.992 21.0363C16.9666 21.0909 17.016 21.0923 16.992 21.0363C18.0123 18.8332 19.3402 16.7814 20.9348 14.9438C21.457 17.0825 21.5727 19.301 21.2721 21.4817C21.234 21.5097 21.2269 21.5629 21.2552 21.5993L21.2721 21.4817C23.3183 19.8374 25.5974 18.4999 28.0345 17.5139C27.2245 19.9761 26.0334 22.2982 24.5023 24.3962C24.9327 24.3122 25.3716 24.2422 25.8246 24.1847C27.868 23.9467 29.9353 23.9901 31.9674 24.315C30.02 26.1441 27.8101 27.6763 25.4111 28.864C27.4601 29.6833 29.3186 30.9088 30.8752 32.4635C28.9475 32.9733 26.9648 33.245 24.9694 33.2744C24.5446 33.2744 24.1368 33.2618 23.7417 33.2338C24.8099 34.85 25.5212 36.6735 25.8288 38.5825C23.8616 38.0797 21.9989 37.2422 20.321 36.1063C20.3435 37.8458 20.0133 39.5727 19.3473 41.1833C18.1097 39.9551 17.1063 38.5139 16.3866 36.9298C16.4064 36.8948 16.3612 36.8724 16.3866 36.9298C15.6359 38.3108 14.6184 39.5321 13.3949 40.5251C12.9631 38.9999 12.8064 37.4116 12.932 35.8318C11.7354 36.6329 10.3877 37.1848 8.96945 37.4523C9.25874 35.9761 9.81051 34.5643 10.5979 33.28C10.6431 33.28 10.6304 33.2268 10.5979 33.28C10.3284 33.3038 10.0589 33.3164 9.78793 33.3164C8.67733 33.3164 7.5752 33.1315 6.52669 32.7716C7.40304 31.5951 8.49529 30.5937 9.74559 29.8192C8.44731 29.1763 7.29438 28.2772 6.35876 27.1749C7.41856 26.6511 8.5602 26.3066 9.7343 26.1553C10.0165 26.1189 10.3002 26.0993 10.5838 26.0909C10.6149 26.1399 10.6431 26.0909 10.5838 26.0909C9.69761 24.6665 9.07669 23.0951 8.75353 21.4509C10.2974 21.5699 11.7904 22.0503 13.1113 22.8514C13.1113 22.9046 13.1578 22.8808 13.1113 22.8514C13.0308 20.8094 13.2665 18.7674 13.8098 16.7954C15.1772 17.9495 16.2638 19.3962 16.9892 21.0265L16.992 21.0363Z" fill="#006FBA"/>
<path d="M21.2763 21.4581V21.4819C19.9484 22.5464 18.8067 23.8209 17.8965 25.2536C17.8951 23.7999 17.5875 22.3629 16.9919 21.0352C16.3343 22.4483 15.9279 23.9623 15.7896 25.5127C15.1235 24.4287 14.2063 23.5169 13.1126 22.8559C13.162 24.2074 13.4795 25.538 14.0482 26.7676C12.963 26.2732 11.7748 26.0436 10.581 26.0968C10.5669 26.0758 10.54 26.0772 10.5019 26.0968H10.581C11.2132 27.115 12.0669 27.9791 13.0802 28.6276C11.8948 28.7845 10.7574 29.192 9.74554 29.8237C10.7743 30.3307 11.9061 30.5982 13.0548 30.6024C12.0669 31.3265 11.2315 32.2368 10.5965 33.2802C11.772 33.1794 12.9108 32.8307 13.9396 32.2564C13.3765 33.3727 13.035 34.587 12.9348 35.8321C13.9748 35.1416 14.8639 34.2508 15.5511 33.213C15.5765 34.4945 15.8616 35.7592 16.3908 36.9287C17.023 35.7774 17.4153 34.5113 17.5409 33.2046C18.2564 34.3531 19.2061 35.3405 20.3266 36.1052C20.3167 34.7368 20.0062 33.3867 19.4164 32.1486C20.7711 32.7929 22.2415 33.1626 23.743 33.234C22.9485 32.0239 21.8916 31.0071 20.6483 30.2564C22.3079 30.0786 23.9222 29.6066 25.4139 28.8629C23.9462 28.2732 22.3728 27.9903 20.7908 28.031C22.2288 27.0366 23.4862 25.8069 24.5093 24.3951C22.8314 24.7018 21.2227 25.3027 19.7593 26.1696C20.5439 24.7102 21.0576 23.122 21.2735 21.4819C21.2791 21.4791 21.2805 21.4721 21.2763 21.4581Z" fill="white"/>
</g>
</g>
<defs>
<clipPath id="clip0_1_1131">
<rect width="50" height="50" fill="white"/>
</clipPath>
<clipPath id="clip1_1_1131">
<rect width="51" height="50" fill="white"/>
</clipPath>
</defs>
</svg>
