<svg width="47" height="22" viewBox="0 0 47 22" fill="none" xmlns="http://www.w3.org/2000/svg">
<path fill-rule="evenodd" clip-rule="evenodd" d="M34.044 0.107965L34.693 0.112525C35.9515 0.112525 36.9607 0.606506 37.4897 1.39384C37.7694 1.80422 37.9122 2.4122 37.9122 3.05361V11.8784C37.9122 12.7752 38.6372 13.5017 39.5325 13.5047H42.1802C42.6316 13.5047 42.998 13.1384 42.998 12.6855V9.20481C42.998 8.5634 43.1439 7.95542 43.4235 7.54504C43.951 6.75771 44.9602 6.26373 46.2187 6.26373L46.8677 6.25765C46.8677 8.44028 46.8662 10.6214 46.8662 12.804C46.8662 14.6781 45.3447 16.1981 43.4737 16.1981H37.438C35.5639 16.1981 34.044 14.6781 34.044 12.804V0.107965ZM40.946 17.4946L42.7 19.2486C42.9068 19.4538 42.9068 19.7942 42.7 20.0009L40.946 21.755C40.7393 21.9617 40.4004 21.9617 40.1937 21.755L38.4381 20.0009C38.2329 19.7942 38.2329 19.4538 38.4381 19.2486L40.1937 17.4946C40.4004 17.2879 40.7393 17.2879 40.946 17.4946ZM10.7311 6.27285L9.91946 7.88094C10.5563 7.88094 10.9059 7.88094 11.5412 7.88094C11.8847 7.88094 12.4608 7.74567 12.7374 7.14681L13.2117 6.11933C13.4275 5.65423 13.3728 5.27576 13.1782 5.04473C12.9837 4.8137 12.7496 4.73315 12.5338 4.73315H11.8726L12.6842 3.12353C12.0474 3.12353 11.6963 3.12353 11.0594 3.12353C10.719 3.12353 10.1429 3.25728 9.86626 3.85766L9.39052 4.88514C9.17469 5.34872 9.22941 5.73023 9.42396 5.95974C9.62003 6.18925 9.8541 6.27285 10.0699 6.27285H10.7311ZM26.7057 1.23728L28.4567 2.98825C28.6619 3.19496 28.6619 3.53239 28.4567 3.7391L26.7057 5.49008C26.499 5.69679 26.1616 5.69679 25.9548 5.49008L24.2039 3.7391C23.9972 3.53239 23.9972 3.19496 24.2039 2.98825L25.9548 1.23728C26.1616 1.03057 26.499 1.03057 26.7057 1.23728ZM21.9103 0.107965L21.2628 0.112525C20.0043 0.112525 18.9966 0.606506 18.4676 1.39384C18.1879 1.80422 18.042 2.4122 18.042 3.05361C18.042 5.9947 18.042 8.93578 18.042 11.8784C18.042 12.7752 17.3185 13.5017 16.4218 13.5047H6.1804C5.28364 13.5017 4.56015 12.7752 4.56015 11.8784C4.56015 10.9907 4.56015 10.1061 4.56015 9.22001C4.56015 8.4874 4.27744 7.49488 3.2758 6.87474C2.55382 6.43548 1.74369 6.25917 0.849968 6.25917H0.691895V12.8147C0.697974 14.6812 2.21032 16.1935 4.0768 16.1981L17.5511 16.195C18.4448 16.1661 19.258 15.8226 19.8842 15.2709C20.5226 15.8333 21.3585 16.1813 22.2735 16.195L27.4748 16.1981C29.3489 16.1981 30.8673 14.6781 30.8673 12.804V6.25765L30.2183 6.26373C28.9628 6.26373 27.9551 6.75771 27.4246 7.54504C27.145 7.95542 27.0006 8.5634 27.0006 9.20481L26.996 12.7265C26.9762 13.1597 26.6175 13.5047 26.1783 13.5047H23.5321C22.6353 13.5017 21.9103 12.7752 21.9103 11.8784V0.106445V0.107965Z" fill="#E6FFF3"/>
</svg>
