<svg width="47" height="17" viewBox="0 0 47 17" fill="none" xmlns="http://www.w3.org/2000/svg">
<path fill-rule="evenodd" clip-rule="evenodd" d="M21.2199 9.53155V6.25911C21.0026 6.25911 20.7852 6.26215 20.5694 6.26367C19.3124 6.26367 18.3032 6.75765 17.7742 7.54498C17.4945 7.95537 17.3517 8.56334 17.3517 9.20476C17.3517 10.0954 17.3517 10.9876 17.3517 11.8783C17.3517 12.7751 16.6267 13.5016 15.7314 13.5047H5.49764C4.60088 13.5047 3.87282 12.7766 3.87282 11.8783C3.87282 10.9907 3.87282 10.1061 3.87282 9.21996C3.87282 8.48735 3.59011 7.49634 2.58695 6.87469C1.86498 6.43543 1.05333 6.25911 0.161126 6.25911H0.00305176C0.00305176 8.44023 0.00305176 10.6213 0.00305176 12.804C0.00305176 14.675 1.51995 16.1934 3.38948 16.198H17.2407C18.0691 16.198 18.9111 15.8819 19.6042 15.2754L19.6088 15.2708C20.2259 15.815 21.0254 16.16 21.9024 16.198C22.1866 16.198 22.4693 16.198 22.752 16.198H25.1535C26.0944 16.198 26.9531 15.8469 27.6082 15.2708C28.2816 15.8651 29.1631 16.198 30.0614 16.198H35.1699C36.0181 16.198 36.7735 15.8059 37.2675 15.1918C38.2281 16.2892 39.8985 16.198 39.8985 16.198H42.8654C44.7319 16.1767 46.2594 14.6872 46.2594 12.804V9.62882C46.2397 7.78817 44.7532 6.29863 42.9141 6.27279H37.459C35.6123 6.28647 34.1136 7.78057 34.0938 9.6273V12.7189C34.0771 13.1551 33.7123 13.5047 33.2715 13.5047H31.2546C30.3578 13.5047 29.6282 12.7766 29.6282 11.8783V0.10791L28.9792 0.11247C27.7222 0.11247 26.7145 0.606451 26.1825 1.39378C25.9059 1.80416 25.76 2.41214 25.76 3.05356V11.8829C25.7569 12.7797 25.0304 13.5047 24.1336 13.5047H20.8202C21.0375 12.9484 21.1834 12.31 21.2184 11.5911C21.2184 10.9056 21.2199 10.2186 21.2199 9.53003V9.53155ZM13.1445 2.80733L14.897 4.5583C15.1037 4.76501 15.1037 5.10244 14.897 5.30915L13.1445 7.06012C12.9393 7.26531 12.6003 7.26531 12.3951 7.06012L10.7673 5.43378L9.14246 7.06012C8.93575 7.26531 8.59832 7.26531 8.39161 7.06012L6.64064 5.30915C6.43393 5.10244 6.43393 4.76501 6.64064 4.5583L8.39161 2.80733C8.59832 2.60061 8.93575 2.60061 9.14246 2.80733L10.7673 4.43366L12.3951 2.80733C12.6003 2.60061 12.9393 2.60061 13.1445 2.80733ZM37.8131 13.5047H41.7239C42.1662 13.5047 42.528 13.1536 42.5432 12.7128V9.5893C42.5432 9.1394 42.1814 8.77309 41.7331 8.77005H38.6309C38.1962 8.77005 37.842 9.10748 37.8146 9.53458V13.5047H37.8131Z" fill="#E6FFF3"/>
</svg>
